<svg width="25" height="24" viewBox="0 0 25 24" fill="none" xmlns="http://www.w3.org/2000/svg">
<path d="M8 12H6C5.173 12 4.5 12.673 4.5 13.5V15.5C4.5 16.327 5.173 17 6 17H8C8.827 17 9.5 16.327 9.5 15.5V13.5C9.5 12.673 8.827 12 8 12ZM8.5 15.5C8.5 15.776 8.275 16 8 16H6C5.725 16 5.5 15.776 5.5 15.5V13.5C5.5 13.224 5.725 13 6 13H8C8.275 13 8.5 13.224 8.5 13.5V15.5ZM20 2H18.5V0.5C18.5 0.224 18.276 0 18 0C17.724 0 17.5 0.224 17.5 0.5V2H7.5V0.5C7.5 0.224 7.276 0 7 0C6.724 0 6.5 0.224 6.5 0.5V2H5C2.519 2 0.5 4.019 0.5 6.5V19.5C0.5 21.981 2.519 24 5 24H20C22.481 24 24.5 21.981 24.5 19.5V6.5C24.5 4.019 22.481 2 20 2ZM5 3H20C21.93 3 23.5 4.57 23.5 6.5V8H1.5V6.5C1.5 4.57 3.07 3 5 3ZM20 23H5C3.07 23 1.5 21.43 1.5 19.5V9H23.5V19.5C23.5 21.43 21.93 23 20 23Z" fill="#7E7E7E"/>
</svg>
