<svg width="24" height="24" viewBox="0 0 24 24" fill="none" xmlns="http://www.w3.org/2000/svg">
<g clip-path="url(#clip0_255_676)">
<path d="M23.5 9C23.224 9 23 9.224 23 9.5V18.354C23 18.597 22.872 18.811 22.658 18.925C22.443 19.04 22.196 19.029 21.993 18.894L17.778 16.083C17.69 16.049 17.606 15.995 17.501 15.999H10.501C8.571 15.999 7.001 14.429 7.001 12.499V4.5C7.001 2.57 8.571 1 10.501 1H14.501C14.777 1 15.001 0.776 15.001 0.5C15.001 0.224 14.777 0 14.501 0H10.501C8.191 0 6.304 1.756 6.052 4H4.501C2.019 4 0 6.019 0 8.5V22.354C0 22.962 0.333 23.52 0.87 23.807C1.115 23.938 1.382 23.999 1.649 23.999C2.037 23.999 2.286 23.909 2.562 23.726L6.651 20.999H13.5C15.682 20.999 17.503 19.438 17.912 17.374L21.438 19.725C21.714 19.909 22.032 20.001 22.351 20.001C22.618 20.001 22.885 19.937 23.13 19.806C23.667 19.519 24 18.961 24 18.353V9.5C24 9.224 23.776 9 23.5 9ZM13.5 20H6.5C6.401 20 6.305 20.029 6.223 20.084L2.008 22.895C1.807 23.03 1.558 23.041 1.343 22.926C1.129 22.812 1.001 22.598 1.001 22.355V8.5C1.001 6.57 2.571 5 4.501 5H6.001V12.5C6.001 14.981 8.02 17 10.501 17H16.95C16.705 18.692 15.259 20 13.501 20H13.5ZM20 8C22.206 8 24 6.206 24 4C24 1.794 22.206 0 20 0C17.794 0 16 1.794 16 4C16 6.206 17.794 8 20 8ZM20 1C21.654 1 23 2.346 23 4C23 5.654 21.654 7 20 7C18.346 7 17 5.654 17 4C17 2.346 18.346 1 20 1Z" fill="#7E7E7E"/>
</g>
<defs>
<clipPath id="clip0_255_676">
<rect width="24" height="24" fill="white"/>
</clipPath>
</defs>
</svg>
