<svg width="24" height="24" viewBox="0 0 24 24" fill="none" xmlns="http://www.w3.org/2000/svg">
<g clip-path="url(#clip0_255_672)">
<path d="M22.017 5.83084L21 5.14484V1.49984C21 1.22384 20.776 0.999844 20.5 0.999844C20.224 0.999844 20 1.22384 20 1.49984V4.46984L14.518 0.770844C12.989 -0.262156 11.011 -0.262156 9.484 0.770844L1.983 5.83084C0.741 6.66884 0 8.06285 0 9.55984V19.4988C0 21.9798 2.019 23.9988 4.5 23.9988H19.5C21.981 23.9988 24 21.9798 24 19.4988V9.56084C24 8.06384 23.259 6.66784 22.017 5.83084ZM23 19.4998C23 21.4298 21.43 22.9998 19.5 22.9998H4.5C2.57 22.9998 1 21.4298 1 19.4998V9.56084C1 8.39584 1.576 7.31184 2.542 6.65984L10.043 1.59884C10.637 1.19784 11.318 0.995844 12 0.995844C12.682 0.995844 13.363 1.19684 13.958 1.59884L21.458 6.65984C22.424 7.31184 23 8.39584 23 9.56084V19.4998Z" fill="#7E7E7E"/>
</g>
<defs>
<clipPath id="clip0_255_672">
<rect width="24" height="24" fill="white"/>
</clipPath>
</defs>
</svg>
