<svg width="24" height="25" viewBox="0 0 24 25" fill="none" xmlns="http://www.w3.org/2000/svg">
<path d="M9.367 2.75H11.5C11.6989 2.75 11.8897 2.82902 12.0303 2.96967C12.171 3.11032 12.25 3.30109 12.25 3.5C12.25 3.69891 12.171 3.88968 12.0303 4.03033C11.8897 4.17098 11.6989 4.25 11.5 4.25H9.4C8.268 4.25 7.463 4.25 6.834 4.302C6.214 4.352 5.829 4.449 5.524 4.604C4.91263 4.91556 4.41556 5.41263 4.104 6.024C3.949 6.329 3.853 6.714 3.802 7.334C3.751 7.964 3.75 8.768 3.75 9.9V15.1C3.75 16.233 3.75 17.037 3.802 17.666C3.852 18.286 3.949 18.671 4.104 18.976C4.41556 19.5874 4.91263 20.0844 5.524 20.396C5.829 20.551 6.214 20.647 6.834 20.698C7.464 20.749 8.268 20.75 9.4 20.75H14.6C15.733 20.75 16.537 20.75 17.166 20.698C17.786 20.648 18.171 20.551 18.476 20.396C19.0874 20.0844 19.5844 19.5874 19.896 18.976C20.051 18.671 20.147 18.286 20.198 17.666C20.249 17.036 20.25 16.232 20.25 15.1V13C20.25 12.8011 20.329 12.6103 20.4697 12.4697C20.6103 12.329 20.8011 12.25 21 12.25C21.1989 12.25 21.3897 12.329 21.5303 12.4697C21.671 12.6103 21.75 12.8011 21.75 13V15.133C21.75 16.225 21.75 17.091 21.693 17.788C21.635 18.502 21.513 19.105 21.233 19.657C20.7774 20.5505 20.0507 21.2768 19.157 21.732C18.605 22.013 18.002 22.135 17.288 22.193C16.591 22.25 15.725 22.25 14.633 22.25H9.367C8.275 22.25 7.409 22.25 6.712 22.193C5.998 22.135 5.395 22.013 4.844 21.733C3.95014 21.2776 3.22341 20.5509 2.768 19.657C2.487 19.105 2.365 18.502 2.307 17.788C2.25 17.091 2.25 16.225 2.25 15.133V9.867C2.25 8.775 2.25 7.909 2.307 7.212C2.365 6.498 2.487 5.895 2.767 5.344C3.22267 4.44999 3.94977 3.72324 4.844 3.268C5.394 2.987 5.998 2.865 6.712 2.807C7.409 2.75 8.275 2.75 9.367 2.75Z" fill="#838383"/>
<path d="M15.0164 4.91061C14.8405 5.33525 14.75 5.79037 14.75 6.25C14.75 7.17826 15.1187 8.0685 15.7751 8.72487C16.4315 9.38125 17.3217 9.75 18.25 9.75C19.1783 9.75 20.0685 9.38125 20.7249 8.72487C21.3813 8.0685 21.75 7.17826 21.75 6.25C21.75 5.79037 21.6595 5.33525 21.4836 4.91061C21.3077 4.48597 21.0499 4.10013 20.7249 3.77513C20.3999 3.45012 20.014 3.19231 19.5894 3.01642C19.1648 2.84053 18.7096 2.75 18.25 2.75C17.7904 2.75 17.3352 2.84053 16.9106 3.01642C16.486 3.19231 16.1001 3.45012 15.7751 3.77513C15.4501 4.10013 15.1923 4.48597 15.0164 4.91061Z" fill="#838383"/>
</svg>
