<svg width="25" height="24" viewBox="0 0 25 24" fill="none" xmlns="http://www.w3.org/2000/svg">
<path d="M20 0H5C2.519 0 0.5 2.019 0.5 4.5V19.5C0.5 21.981 2.519 24 5 24H16.843C18.027 24 19.187 23.52 20.025 22.682L23.182 19.526C24.032 18.676 24.5 17.546 24.5 16.343V4.5C24.5 2.019 22.481 0 20 0ZM1.5 19.5V4.5C1.5 2.57 3.07 1 5 1H20C21.93 1 23.5 2.57 23.5 4.5V16H19C17.622 16 16.5 17.121 16.5 18.5V23H5C3.07 23 1.5 21.43 1.5 19.5ZM22.475 18.818L19.318 21.974C18.823 22.469 18.183 22.804 17.5 22.936V18.5C17.5 17.673 18.173 17 19 17H23.439C23.31 17.685 22.979 18.315 22.475 18.818ZM4.5 6C4.5 5.448 4.948 5 5.5 5C6.052 5 6.5 5.448 6.5 6C6.5 6.552 6.052 7 5.5 7C4.948 7 4.5 6.552 4.5 6ZM6.5 12C6.5 12.552 6.052 13 5.5 13C4.948 13 4.5 12.552 4.5 12C4.5 11.448 4.948 11 5.5 11C6.052 11 6.5 11.448 6.5 12ZM6.5 18C6.5 18.552 6.052 19 5.5 19C4.948 19 4.5 18.552 4.5 18C4.5 17.448 4.948 17 5.5 17C6.052 17 6.5 17.448 6.5 18Z" fill="#7E7E7E"/>
</svg>
